<svg width="531" height="121" viewBox="0 0 531 121" fill="none" xmlns="http://www.w3.org/2000/svg">
<path d="M171.561 5.87896H137.754H135.853V20.0436L138.302 24.3675C139.313 26.1532 140.184 28.0104 140.919 29.9175V10.9452H171.561C184.261 10.9452 194.592 21.2766 194.592 33.9761C194.592 46.6755 184.261 57.0072 171.561 57.0072H140.919V47.8164H140.816C140.882 46.8865 140.919 45.9485 140.919 45.0017C140.919 38.0029 139.072 31.4389 135.853 25.7547C129.133 13.8909 116.404 5.87896 101.796 5.87896H101.796V5.83838H5.20166V10.9043H38.4237V84.1247H43.49V10.9043H82.6197H101.796V10.9452H101.796C120.575 10.9452 135.853 26.2229 135.853 45.0017C135.853 63.7808 120.575 79.0588 101.796 79.0588C83.0172 79.0588 67.7397 63.781 67.7397 45.0017C67.7397 31.5365 75.5959 19.8728 86.9646 14.3498H77.502C68.4704 21.5143 62.6733 32.5777 62.6733 45.0017C62.6733 66.6087 80.1892 84.1247 101.796 84.1247C116.404 84.1247 129.133 76.1127 135.853 64.2487V84.1247H140.919V62.0734H171.561C187.054 62.0734 199.659 49.4689 199.659 33.9761C199.659 18.4832 187.054 5.87896 171.561 5.87896ZM136.889 62.2851C136.848 62.3671 136.806 62.4487 136.765 62.5307C136.806 62.4487 136.849 62.3673 136.889 62.2851ZM138.539 58.4391C138.536 58.4477 138.533 58.4565 138.529 58.4654C138.533 58.4565 138.536 58.4477 138.539 58.4391ZM137.791 60.3197C137.758 60.3996 137.724 60.4789 137.689 60.5585C137.724 60.4789 137.758 60.3996 137.791 60.3197Z" fill="#102F59"/>
<path d="M206.076 6.54028H223.248V68.9853H262.164V84.5964H206.076V6.54028Z" fill="#102F59"/>
<path d="M258.817 45.7914V45.5687C258.817 23.3785 276.324 5.20239 300.409 5.20239C324.495 5.20239 341.779 23.1554 341.779 45.3455V45.5687C341.779 67.7589 324.272 85.9345 300.186 85.9345C276.101 85.9345 258.817 67.9816 258.817 45.7914ZM323.826 45.7914V45.5687C323.826 32.1872 314.013 21.0367 300.186 21.0367C286.36 21.0367 276.769 31.9648 276.769 45.3455V45.5687C276.769 58.9497 286.582 70.1002 300.41 70.1002C314.236 70.1002 323.826 59.1726 323.826 45.7914Z" fill="#102F59"/>
<path d="M345.233 45.7914V45.5687C345.233 23.3785 362.517 5.20239 386.156 5.20239C400.206 5.20239 408.68 8.99379 416.822 15.9071L406.005 28.954C399.984 23.936 394.631 21.0367 385.6 21.0367C373.109 21.0367 363.185 32.0762 363.185 45.3455V45.5687C363.185 59.8419 372.998 70.3234 386.826 70.3234C393.069 70.3234 398.645 68.7622 402.994 65.6403V54.489H385.711V39.6587H419.609V73.5568C411.58 80.3593 400.541 85.9345 386.268 85.9345C361.959 85.9345 345.233 68.8738 345.233 45.7914Z" fill="#102F59"/>
<path d="M445.701 6.54028H428.529V84.5964H445.701V6.54028Z" fill="#102F59"/>
<path d="M453.393 45.7914V45.5687C453.393 23.3785 470.119 5.20239 494.093 5.20239C508.812 5.20239 517.621 10.1086 524.869 17.2451L513.941 29.846C507.92 24.3815 501.787 21.0367 493.981 21.0367C480.824 21.0367 471.345 31.9648 471.345 45.3455V45.5687C471.345 58.9497 480.601 70.1002 493.981 70.1002C502.902 70.1002 508.366 66.5317 514.499 60.957L525.426 71.9962C517.398 80.5827 508.477 85.9345 493.424 85.9345C470.453 85.9345 453.393 68.205 453.393 45.7914Z" fill="#102F59"/>
<path d="M9.85143 102.829H5.20166V99.729H17.8634V102.829H13.2134V115.01H9.85143V102.829Z" fill="#102F59"/>
<path d="M22.6226 99.729H25.9843V105.776H32.184V99.729H35.5462V115.01H32.184V108.876H25.9843V115.01H22.6226V99.729Z" fill="#102F59"/>
<path d="M41.395 99.729H52.9214V102.72H44.7351V105.82H51.9395V108.811H44.7351V112.02H53.0306V115.01H41.395V99.729Z" fill="#102F59"/>
<path d="M72.1756 99.6201H75.2756L81.8247 115.011H78.3098L76.9127 111.583H70.4508L69.0537 115.011H65.6265L72.1756 99.6201ZM75.7121 108.615L73.6819 103.659L71.6514 108.615H75.7121Z" fill="#102F59"/>
<path d="M85.5791 108.461V99.7293H88.9411V108.374C88.9411 110.863 90.1854 112.151 92.2375 112.151C94.2895 112.151 95.5339 110.906 95.5339 108.483V99.729H98.8958V108.351C98.8958 112.98 96.2981 115.25 92.1938 115.25C88.0897 115.25 85.5791 112.958 85.5791 108.461Z" fill="#102F59"/>
<path d="M108.063 102.829H103.413V99.729H116.075V102.829H111.425V115.01H108.063V102.829Z" fill="#102F59"/>
<path d="M119.502 107.414V107.37C119.502 103.026 122.929 99.467 127.645 99.467C132.36 99.467 135.744 102.982 135.744 107.326V107.37C135.744 111.714 132.316 115.273 127.601 115.273C122.886 115.273 119.502 111.758 119.502 107.414ZM132.229 107.414V107.37C132.229 104.75 130.308 102.567 127.601 102.567C124.894 102.567 123.017 104.707 123.017 107.326V107.37C123.017 109.989 124.938 112.172 127.645 112.172C130.352 112.172 132.229 110.033 132.229 107.414Z" fill="#102F59"/>
<path d="M140.917 99.729H144.541L148.558 106.191L152.575 99.729H156.199V115.01H152.859V105.034L148.558 111.561H148.471L144.214 105.099V115.01H140.917V99.729Z" fill="#102F59"/>
<path d="M167.289 99.6201H170.389L176.938 115.011H173.423L172.026 111.583H165.564L164.167 115.011H160.74L167.289 99.6201ZM170.825 108.615L168.795 103.659L166.764 108.615H170.825Z" fill="#102F59"/>
<path d="M183.07 102.829H178.42V99.729H191.082V102.829H186.432V115.01H183.07V102.829Z" fill="#102F59"/>
<path d="M195.841 99.729H207.368V102.72H199.181V105.82H206.385V108.811H199.181V112.02H207.477V115.01H195.841V99.729Z" fill="#102F59"/>
<path d="M212.651 99.729H218.611C223.413 99.729 226.731 103.026 226.731 107.326V107.37C226.731 111.67 223.413 115.01 218.611 115.01H212.651V99.729ZM216.013 102.763V111.976H218.611C221.361 111.976 223.217 110.12 223.217 107.414V107.37C223.217 104.663 221.361 102.763 218.611 102.763H216.013Z" fill="#102F59"/>
<path d="M245.875 99.6201H248.975L255.524 115.011H252.009L250.612 111.583H244.151L242.753 115.011H239.326L245.875 99.6201ZM249.412 108.615L247.381 103.659L245.351 108.615H249.412Z" fill="#102F59"/>
<path d="M260.064 99.729H266.308C269.953 99.729 272.158 101.891 272.158 105.012V105.056C272.158 108.592 269.408 110.426 265.98 110.426H263.426V115.011H260.064V99.729V99.729ZM266.09 107.435C267.771 107.435 268.753 106.431 268.753 105.121V105.078C268.753 103.571 267.705 102.763 266.024 102.763H263.426V107.435H266.09V107.435Z" fill="#102F59"/>
<path d="M276.83 99.729H283.074C286.72 99.729 288.924 101.891 288.924 105.012V105.056C288.924 108.592 286.174 110.426 282.747 110.426H280.192V115.011H276.83V99.729ZM282.856 107.435C284.537 107.435 285.519 106.431 285.519 105.121V105.078C285.519 103.571 284.471 102.763 282.79 102.763H280.192V107.435H282.856V107.435Z" fill="#102F59"/>
<path d="M293.595 99.729H296.956V111.954H304.575V115.01H293.595V99.729Z" fill="#102F59"/>
<path d="M312.806 99.729H309.443V115.01H312.806V99.729Z" fill="#102F59"/>
<path d="M318.131 107.414V107.37C318.131 103.026 321.405 99.467 326.099 99.467C328.981 99.467 330.706 100.428 332.124 101.825L329.985 104.291C328.806 103.222 327.606 102.567 326.077 102.567C323.501 102.567 321.646 104.707 321.646 107.326V107.37C321.646 109.989 323.457 112.172 326.077 112.172C327.824 112.172 328.893 111.474 330.094 110.382L332.234 112.543C330.662 114.224 328.915 115.272 325.968 115.272C321.471 115.273 318.131 111.801 318.131 107.414Z" fill="#102F59"/>
<path d="M342.34 99.6201H345.441L351.99 115.011H348.475L347.078 111.583H340.616L339.219 115.011H335.791L342.34 99.6201ZM345.877 108.615L343.847 103.659L341.817 108.615H345.877Z" fill="#102F59"/>
<path d="M358.125 102.829H353.475V99.729H366.136V102.829H361.486V115.01H358.125V102.829Z" fill="#102F59"/>
<path d="M374.409 99.729H371.047V115.01H374.409V99.729Z" fill="#102F59"/>
<path d="M379.736 107.414V107.37C379.736 103.026 383.164 99.467 387.879 99.467C392.595 99.467 395.978 102.982 395.978 107.326V107.37C395.978 111.714 392.551 115.273 387.835 115.273C383.12 115.273 379.736 111.758 379.736 107.414ZM392.463 107.414V107.37C392.463 104.75 390.542 102.567 387.835 102.567C385.128 102.567 383.251 104.707 383.251 107.326V107.37C383.251 109.989 385.172 112.172 387.879 112.172C390.586 112.172 392.463 110.033 392.463 107.414Z" fill="#102F59"/>
<path d="M401.149 99.729H404.249L411.41 109.138V99.729H414.729V115.01H411.868L404.468 105.296V115.01H401.149V99.729Z" fill="#102F59"/>
<path d="M429.31 99.729H440.836V102.72H432.65V105.82H439.854V108.811H432.65V112.02H440.945V115.01H429.31V99.729Z" fill="#102F59"/>
<path d="M446.119 99.729H449.219L456.38 109.138V99.729H459.698V115.01H456.838L449.437 105.296V115.01H446.119V99.729Z" fill="#102F59"/>
<path d="M464.871 107.414V107.37C464.871 103.026 468.254 99.467 472.883 99.467C475.633 99.467 477.292 100.209 478.886 101.563L476.768 104.117C475.589 103.135 474.541 102.567 472.773 102.567C470.328 102.567 468.385 104.728 468.385 107.326V107.37C468.385 110.164 470.306 112.216 473.013 112.216C474.236 112.216 475.327 111.91 476.179 111.3V109.116H472.795V106.213H479.431V112.849C477.86 114.181 475.698 115.273 472.904 115.273C468.145 115.273 464.871 111.932 464.871 107.414Z" fill="#102F59"/>
<path d="M488.36 99.729H484.998V115.01H488.36V99.729Z" fill="#102F59"/>
<path d="M494.363 99.729H497.463L504.623 109.138V99.729H507.942V115.01H505.082L497.682 105.296V115.01H494.363V99.729Z" fill="#102F59"/>
<path d="M513.792 99.729H525.318V102.72H517.131V105.82H524.336V108.811H517.131V112.02H525.427V115.01H513.792V99.729Z" fill="#102F59"/>
</svg>
